<svg width="1920" height="1577" viewBox="0 0 1920 1577" fill="none" xmlns="http://www.w3.org/2000/svg">
<g filter="url(#filter0_d_2_27)">
<path d="M-1 891.5V601.771C206.289 596.549 333.174 517.681 449.511 445.273C562.599 374.975 660.483 314.016 824.841 329.248C973.091 360.581 1107.04 488.088 1256.83 642.075C1170.2 704.306 1089.39 770.487 1007.55 837.605C914.421 913.929 819.818 991.391 712.858 1066.51C675.486 1060.86 637.946 1054.69 600.239 1048C374.531 1007.76 163.894 952.191 -1 891.5ZM-1 1420.41V1025C183.45 1089.07 369.073 1130.98 432.231 1144.37C474.113 1153.3 515.124 1161.49 555.265 1168.94C454.594 1228.95 349.652 1281.48 241.284 1326.11C157.006 1361.17 76.2451 1392.64 -1 1420.51V1420.41ZM1075.5 1486.96C812.283 1606.3 180.37 1486.96 180.37 1486.96C214.974 1473.37 250.192 1459.16 286.023 1444.35C445.778 1378.65 598.311 1296.63 741.189 1199.57C947.138 1229.07 1126.6 1239.74 1278 1239.74C1348.32 1239.74 1412.35 1237.37 1470.45 1233.65C1470.55 1233.72 1182.42 1438.62 1075.6 1487.06L1075.5 1486.96ZM1922 656.469V943.521C1917.83 946.534 1913.48 949.491 1908.97 952.392L1844.51 993.734C1697.87 907.267 1571.85 786.689 1450.99 663.164C1537.16 610.01 1628.12 565.046 1722.68 528.861L1908.5 647.23C1913.17 650.288 1917.67 653.367 1922 656.469ZM-1 118.621C-1 118.621 728.196 -96.5257 1078.31 118.621C1208.34 198.493 1593.02 446.411 1593.02 446.411C1512.91 482.235 1435.58 523.948 1361.65 571.208C1195.18 399.512 1035.58 242.379 845.202 203.715L839.274 202.845C633.492 182.759 508.315 260.623 387.19 335.943C282.139 401.454 174.442 468.17 -1 474.029V118.621ZM1714.78 1077.09L1734.87 1073.14C1732.56 1071.66 1730.32 1070.09 1728.01 1068.58C1583.61 972.745 1459.63 850.66 1345.27 733.061C1255.02 796.664 1170.6 865.824 1082.9 937.663C1021.21 988.21 958.993 1039.29 892.888 1089.91C1201.21 1123.25 1488.67 1119.17 1714.78 1077.09Z" fill="white"/>
</g>
<defs>
<filter id="filter0_d_2_27" x="-24" y="0" width="1983" height="1577" filterUnits="userSpaceOnUse" color-interpolation-filters="sRGB">
<feFlood flood-opacity="0" result="BackgroundImageFix"/>
<feColorMatrix in="SourceAlpha" type="matrix" values="0 0 0 0 0 0 0 0 0 0 0 0 0 0 0 0 0 0 127 0" result="hardAlpha"/>
<feOffset dx="7" dy="7"/>
<feGaussianBlur stdDeviation="15"/>
<feColorMatrix type="matrix" values="0 0 0 0 0 0 0 0 0 0 0 0 0 0 0 0 0 0 0.05 0"/>
<feBlend mode="normal" in2="BackgroundImageFix" result="effect1_dropShadow_2_27"/>
<feBlend mode="normal" in="SourceGraphic" in2="effect1_dropShadow_2_27" result="shape"/>
</filter>
</defs>
</svg>
